<svg xmlns="http://www.w3.org/2000/svg" viewBox="0 0 300 170"><path d="M136.4 144.3l2.4 4.6c1.5 2.4 3.9 2.3 3.9 2.3h9.8c2.4-.3 1.2-2.4 1.2-2.4s-6.8-12.6-8.2-15.2c-1.1-2.7.6-4.6.6-4.6l7.1-9.2c1.4-2-.8-2.1-.8-2.1h-10.3c-2.5.1-3.9 2-3.9 2s-3.3 4.7-4.4 6.4c-1.3 1.5-1.4-.6-1.4-.6v-16.3c0-2.9-2.7-2.8-2.7-2.8h-8.3c-2.9-.1-2.9 2.6-2.9 2.6v39.6c.2 2.7 2.6 2.7 2.6 2.7h8.6c2.8-.1 2.7-2.7 2.7-2.7v-2.3s0-.6.4-1.1l1.8-2.3s.5-.8.9 0c.4.6.9 1.4.9 1.4zm53.6-29.6c0 2.8-1.6 3-2 3-1.8.1-2 2.4-2 2.4v5.7c0 2 1.2 2.6 2 2.7 1.9.2 2 2.5 2 2.5v9.2c.1 2.6.3 3.4.6 4.7 1.8 5.7 6.6 6.5 8 6.8 4.7.8 7.2.2 9.2-.3 3.8-.7 3.8-3.9 3.8-3.9v-7c0-1-.8-.8-1.2-.7-1.7.5-2.3.5-3.1.6-1.6 0-2.1-.6-2.5-.9-.7-.8-.7-2.3-.7-2.3v-6c.1-2.8 2.7-2.7 2.7-2.7h2.3c2.7-.1 2.7-2.7 2.7-2.7v-5.3c-.1-3-2.8-2.8-2.8-2.8h-2.1c-2.9-.1-2.9-2.7-2.9-2.7v-2.9c0-2.8-2.5-2.9-2.5-2.9h-8.8c-2.6.1-2.7 2.6-2.7 2.6v2.9zm-115.1 25c-.5 3.9-3.5 4.2-3.5 4.2-2.2.2-2.6-.4-3.1-.8-1.3-1.4-.9-3.1-.7-3.8 1-2.4 3.5-2.4 4.2-2.4 3.6.2 3.2 2 3.1 2.8zm13.8-7.7c0-1.3.1-4.9-1.7-8.2-2-3.6-5.8-5.1-5.8-5.1-3.6-1.7-9.5-1.7-11.6-1.7-5.3.4-7.4 1-9.9 1.6-2.8.8-2.2 3.3-2.2 3.3s1.1 4.1 1.4 5.4c.3 1.2 1.4 1 1.8.9 5.7-1.9 9.1-1.4 10.6-1.1 2.9.9 3.2 2.7 3.4 3.6.2 1.2-.5 1.3-1 1.2-2.1-.5-4.7-.9-6.3-.9-4.8 0-7.3 1.1-8.9 2-4.2 2.8-4.4 6.1-4.4 8.8.1 5.5 3.2 7.5 4.2 8.3 2.8 1.8 6 1.8 7.2 1.8 4.3-.3 6.7-2.3 7.3-2.7.3-.2.7-.4 1-.5.9-.1.8.3.9.6.1 1.7 2.5 1.7 2.5 1.7h8.6c3.1 0 2.9-2.8 2.9-2.8s.1-14.7 0-16.2zm14 19.2c2.8 0 2.8-2.6 2.8-2.6V142c.1-4.6 1.7-6.7 2.1-7.2 2.3-3 7-2.8 7-2.8 1.5 0 1.4-1.4 1.4-1.4v-12.1c0-1.3-1.1-1.3-1.7-1.3-3.2.5-5.4 2.8-6 3.4-.5.5-1.5 1.9-1.8 2.2-1 .8-1-.8-1-.8v-1.5c-.1-2.8-2.6-2.8-2.6-2.8h-8.8c-2.4.2-2.6 2.5-2.6 2.5v28.3c0 2.7 2.5 2.8 2.5 2.8l8.7-.1zm68.5-19.8h-4.5s-2.6-.2-1.3-2.8c.4-.8 1.7-2.6 4-2.2 1.3.3 2.3.8 3.3 2.5.2.7.8 2.4-1.5 2.5zm14.6.6c-.9-7.2-4.4-10.3-5.6-11.4-4.4-4-11.1-3.9-11.1-3.9-4.8-.1-7.9 1.5-7.9 1.5-3.5 1.6-6.4 4.3-8.1 7.8-2.4 4.7-1.9 9.8-1.8 10.9.2 1.7.7 4.6 3.1 8 1.8 2.5 5.5 6 12.7 6.8 10.7 1.1 15.8-4.8 16.5-5.6 1.2-1.3.7-2.2.1-2.7l-4.7-3.7c-1.4-1.1-2.2-.3-2.7 0-1.2 1.1-2.7 1.8-3.6 2-4.4 1.1-6.6-1.8-7-2.5-.8-1.9 1.5-1.7 1.5-1.7s16.4-.1 17.1 0c1.8-.2 1.6-1.1 1.7-1.7.1-1.4 0-2.2-.2-3.8zM28.6 143.9c.2-.3.4-.6.7-1l7-10.8c.8-1.2 1.5-1 1.5.4v16c0 1.5 1.2 2.7 2.7 2.7h9c1.5 0 2.7-1.2 2.7-2.7v-37.7c0-1.5-1.2-2.7-2.7-2.7h-9.7c-1.5 0-3.3 1-4.1 2.3L29.3 121c-.8 1.2-2 1.2-2.8 0l-6.4-10.6c-.8-1.3-2.6-2.3-4.1-2.3H6.2c-1.5 0-2.7 1.2-2.7 2.7v37.7c0 1.5 1.2 2.7 2.7 2.7H15c1.5 0 2.7-1.2 2.7-2.7v-16c0-1.5.7-1.7 1.5-.4l7 10.8c.2.3.5.7.6 1 .4.6 1.3.8 1.8 0zm78.3-63.2c0 3.4-2.4 6-5.6 6-3.2 0-5.6-2.7-5.6-6v-.1c0-3.4 2.4-6 5.6-6 3.2 0 5.6 2.7 5.6 6v.1zm13.1-5c-1.2-5.8-4.4-8.8-6.1-10.1-5.4-4-10.9-2.3-11.8-2-2.5.8-4.5 2.7-4.8 3-1.1.6-1.2-.2-1.3-.5 0-2.2-2.5-2.2-2.4-2.2h-8.9C82 64 82 66.4 82 66.4v38.1c.1 2.8 2.6 2.8 2.6 2.8h8.6c2.9-.1 2.8-2.8 2.8-2.8V95s.2-.9.9-.4c3.6 3.5 6.9 3.6 8.8 3.7 5.4.2 8.6-2.9 9.6-3.8 3.2-3.2 4.2-7.2 4.2-7.2 1.6-5.4.8-10 .5-11.6zM43.4 86.2c-.1 1.9.6 4.2.6 4.2 2 6.8 7.8 7.7 10.4 7.8 4.9.1 8-2.7 8.6-3.2.5-.5.8-.7 1.3-.9.7-.1.9.5.9 1 .1 2.2 2.5 2.3 2.5 2.3h8.9c2.7-.3 2.6-2.8 2.6-2.8v-28c-.1-2.8-2.6-2.8-2.6-2.8h-8.9c-2.7.4-2.5 2.8-2.5 2.8v15.2s0 4-3.9 4.3c-3.9 0-3.9-4.5-3.9-4.5V66.5c0-2.6-2.5-2.8-2.5-2.8H46c-2.6.3-2.6 2.7-2.6 2.7v19.8zm126.5 11.2c2.8 0 2.8-2.6 2.8-2.6v-6.6c.1-4.6 1.7-6.6 2.1-7.2 2.3-3 7-2.8 7-2.8 1.5 0 1.4-1.4 1.4-1.4s-.1-10.7 0-12.1c0-1.3-1.1-1.3-1.7-1.3-3.2.5-5.4 2.8-6 3.4-.6.5-1.6 1.9-1.8 2.2-1 .8-1-.8-1-.8v-1.5c-.1-2.8-2.6-2.8-2.6-2.8h-8.8c-2.4.2-2.6 2.5-2.6 2.5v28.3c0 2.7 2.5 2.8 2.5 2.8l8.7-.1zm-154 .3c8.4 1.2 12.5-.1 14.5-.6 6.3-1.8 8.7-5.6 9.6-7.4 2.2-4.5 1.2-8.8.7-10.2-1.5-4-4.4-5.5-6.6-6.7-3.7-1.8-8-2.6-10.6-3.1-2.5-.5-3.2-.7-4.3-1-2-.7-1.9-1.2-2-1.7-.2-.8.5-1.5 1.1-1.8 2.1-.9 4.5 0 6.6.6 1.7.5 3.4 1.1 5.1 1.8l1.5.6c1.7.9 3-.7 3-.7l4.9-6.8c.5-.7.3-1.9-.3-2.4-.9-.6-1-.6-2.6-1.6-6.3-3.3-14-3.3-14-3.3s.1-.1-2.3 0c-7.1.1-11.4 3-12.4 3.8-3.9 3.1-4.7 6.9-5 8.7-.8 5.8 1.9 8.8 2.7 9.6 2.6 2.8 6.7 4.1 8.9 4.8 3 .9 6.8 1.6 8.6 2 3.7.8 3.7 1.7 3.8 2.4 0 1.7-1.8 1.9-3.6 2-4.9 0-12-3.5-13.5-4.2-1.6-.7-2.8.5-2.8.5l-5.2 6.1c-1.1 1.4-.7 2.4 0 2.9 5 3.9 12.1 5.3 12.1 5.3l2.1.4zm126-20h-4.5s-2.6-.2-1.3-2.8c.4-.8 1.7-2.6 4-2.2 1.3.3 2.3.8 3.3 2.5.2.7.8 2.4-1.5 2.5zm14.7.6c-1-7.2-4.4-10.3-5.6-11.4-4.5-4-11.1-3.9-11.1-3.9-4.8-.1-7.9 1.5-7.9 1.5-5 2.3-7.3 6.2-8.1 7.8-2.4 4.7-1.9 9.9-1.8 11 .2 1.7.6 4.6 3.1 8 1.8 2.5 5.5 6 12.7 6.8 10.7 1.1 15.9-4.8 16.5-5.5 1.2-1.3.7-2.2.1-2.7 0 0-3.2-2.5-4.7-3.7-1.4-1.1-2.2-.3-2.7 0-1.2 1.1-2.7 1.8-3.6 2-4.4 1.1-6.6-1.8-7-2.5-.8-1.9 1.5-1.8 1.5-1.8s16.4-.1 17.1 0c1.8-.1 1.6-1.1 1.7-1.7 0-1.6-.1-2.4-.2-3.9zm-51.1-34c2.8-.2 2.7-2.8 2.7-2.8V26.6c-.1-.7.3-4.3 4-4.5 3.9.2 3.9 4.4 3.9 4.4v15.3c.2 2.4 2.4 2.5 2.4 2.5h9.1c2.4-.2 2.5-2.6 2.5-2.6V22c-.1-5.4-2.2-7.8-3.1-8.9-2.3-2.4-5.2-3.3-8.4-3.3-4.7.1-7.8 3.1-8.7 3.8-1.5 1.1-1.6-.2-1.6-.6-.2-2.2-2.4-2.4-2.4-2.4h-9.2c-1.3.1-2.4 1.1-2.5 2.4v28.1c-.2 1.6.8 2.9 2.2 3.2h9.1zm64.8-17.1l6.2 15.3c.7 1.5.3 2.1-.5 1.9-2.3-.4-3.6-.9-4.9-1.4-2.5-1.1-3.5 1.1-3.5 1.1s-1.7 3.9-2.2 5.2c-.5 1.1-.2 2.6 1.4 3.2 1.5.7 2.9 1.1 4.7 1.6 8 1.8 12-.2 13.4-1 4.7-2.6 7-10.1 8-12.6 0-.1 8.8-23.8 9.9-26.6 1.1-2.8-1.7-2.8-1.7-2.8H192c-2.6.2-3.3 2.5-3.3 2.5s-3.6 11.9-3.9 12.8c-.2.6-.5.9-.7.9-.5 0-.8-.8-.8-.8s-3.2-9.8-4.2-12.8c-1.1-2.7-3.5-2.6-3.5-2.6h-9.2c-2.6.2-1.6 2.4-1.6 2.4l5.5 13.7zM151.8 25h-4.5s-2.6-.2-1.3-2.8c.4-.8 1.7-2.6 3.9-2.2 1.3.3 2.4.8 3.3 2.5.3.7.9 2.4-1.4 2.5zm14.7.6c-.9-7.2-4.4-10.3-5.6-11.4-4.4-4-11.1-3.9-11.1-3.9-4.7-.1-7.9 1.5-7.9 1.5-5 2.3-7.4 6.2-8.1 7.8-2.4 4.7-1.9 9.9-1.7 11 .2 1.7.6 4.6 3 8 1.9 2.5 5.5 6 12.7 6.8 10.7 1.1 15.9-4.8 16.5-5.6 1.2-1.2.6-2.2 0-2.7l-4.7-3.8c-1.4-1.1-2.2-.3-2.6 0-1.2 1.1-2.7 1.8-3.6 2-4.4 1.1-6.6-1.8-7-2.5-.8-1.9 1.5-1.8 1.5-1.8s16.4-.1 17.1 0c1.8-.1 1.6-1.1 1.7-1.7 0-1.3-.1-2.1-.2-3.7zM28.6 37c.2-.3.4-.7.7-1l7-10.8c.8-1.2 1.5-1 1.5.4v16c0 1.5 1.2 2.7 2.7 2.7h9c1.5 0 2.7-1.2 2.7-2.7V3.8c0-1.5-1.2-2.7-2.7-2.7h-9.7c-1.5 0-3.3 1-4.1 2.3L29.2 14c-.8 1.3-2 1.3-2.8 0L19.9 3.5c-.8-1.3-2.6-2.3-4.1-2.3H6.2c-1.5 0-2.7 1.2-2.7 2.7v37.7c0 1.5 1.2 2.7 2.7 2.7H15c1.5 0 2.7-1.2 2.7-2.7v-16c0-1.5.7-1.7 1.5-.4l7 10.8c.2.4.5.7.6 1 .4.6 1.3.8 1.8 0zm50.1-9.4v-.1c0-3.3-2.4-6-5.5-6-3.2 0-5.4 2.6-5.4 5.8v.1c0 3.3 2.5 6 5.6 6 3 0 5.3-2.6 5.3-5.8zm-24.4 0v-.1c0-9.5 7.9-17.6 19-17.6 11 0 18.8 8 18.8 17.5v.1c0 9.5-7.9 17.6-18.9 17.6-11.1 0-18.9-8-18.9-17.5z" fill="#562873"/></svg>